<svg xmlns="http://www.w3.org/2000/svg" viewBox="0 0 349.74 331.36"><defs><style>.cls-1{isolation:isolate;}.cls-2{fill:#4468b1;}.cls-3{fill:#f0556a;mix-blend-mode:multiply;}</style></defs><title>Photo Ads icon</title><g class="cls-1"><g id="Layer_1" data-name="Layer 1"><path class="cls-2" d="M264.62,195.68V442.53H511.47V195.68H264.62ZM488.69,391.95H287.4v-173h201.3v173Z" transform="translate(-226.07 -138.01)"/><path class="cls-2" d="M498.7,374.38a139,139,0,0,1-18.5-23c-5.18-8.19-12.87-31.72-22.85-31.72s-19.08,21.74-33,39.37a138.29,138.29,0,0,1-14,15.19Z" transform="translate(-226.07 -138.01)"/><path class="cls-2" d="M431.62,337.39c-32.83-12.42-44.36-64.77-60.56-66.54-18.52-2-27.16,26-48.13,48.36-20,21.29-42.72,27.06-42.72,27.06l-2.67,28.11H400.43c3-2.83,13.06-12.26,19.21-20.35C424.71,347.37,431.62,337.39,431.62,337.39Z" transform="translate(-226.07 -138.01)"/><circle class="cls-2" cx="453.67" cy="255.23" r="17.96" transform="matrix(0.27, -0.96, 0.96, 0.27, -142.1, 483.66)"/><rect class="cls-3" x="221.74" y="275.12" width="128" height="56.25" rx="13.77" ry="13.77"/><path class="cls-3" d="M406.77,138H242a16,16,0,0,0-16,16v90.21a16,16,0,0,0,16,16H406.77a16,16,0,0,0,16-16V154A16,16,0,0,0,406.77,138Zm2.45,101.8a7.33,7.33,0,0,1-7.3,7.3h-155a7.33,7.33,0,0,1-7.3-7.3V158.36a7.33,7.33,0,0,1,7.3-7.3h155a7.33,7.33,0,0,1,7.3,7.3v81.45Z" transform="translate(-226.07 -138.01)"/><path class="cls-3" d="M325.1,161.66a37.67,37.67,0,1,0,37.67,37.67A37.67,37.67,0,0,0,325.1,161.66Zm0,62.47a24.79,24.79,0,1,1,24.79-24.79A24.79,24.79,0,0,1,325.1,224.13Z" transform="translate(-226.07 -138.01)"/><rect class="cls-3" x="152.75" y="18.18" width="24.41" height="16.44" rx="3.9" ry="3.9"/></g></g></svg>